<svg width="25" height="25" fill="none" xmlns="http://www.w3.org/2000/svg"><path d="m6.589 7.367-.276-.285v10.836l.276-.285a.955.955 0 1 1 1.352 1.352l-1.904 1.904a.952.952 0 0 1-.315.2.895.895 0 0 1-.723 0 .952.952 0 0 1-.315-.2L2.78 18.985a.956.956 0 0 1 1.352-1.352l.276.285V7.082l-.276.285A.956.956 0 0 1 2.78 6.015l1.904-1.904A.952.952 0 0 1 5 3.91a.895.895 0 0 1 .723 0 .952.952 0 0 1 .315.2L7.94 6.015a.956.956 0 1 1-1.352 1.352ZM13.026 17.309h8.522a.952.952 0 0 1 0 1.904h-8.522a.952.952 0 1 1 0-1.904ZM13.026 11.309h6.522a.952.952 0 0 1 0 1.904h-6.522a.952.952 0 0 1 0-1.904ZM13.026 5.309h4.522a.952.952 0 0 1 0 1.904h-4.522a.952.952 0 0 1 0-1.904Z" fill="#17171B"/></svg>